<svg xmlns="http://www.w3.org/2000/svg" width="24" height="28" viewBox="0 0 24 28">
  <g id="user" transform="translate(0 -0.008)">
    <path id="Caminho_8734" data-name="Caminho 8734" d="M92,13.341a6.667,6.667,0,1,1,6.667-6.667A6.674,6.674,0,0,1,92,13.341ZM92,2.008a4.667,4.667,0,1,0,4.667,4.667A4.672,4.672,0,0,0,92,2.008Zm0,0" transform="translate(-79.999)" fill="#25282a"/>
    <path id="Caminho_8735" data-name="Caminho 8735" d="M23,268.008H1a1,1,0,0,1-1-1v-4.667a6.341,6.341,0,0,1,6.333-6.333H17.667A6.341,6.341,0,0,1,24,262.341v4.667A1,1,0,0,1,23,268.008Zm-21-2H22v-3.667a4.338,4.338,0,0,0-4.333-4.333H6.333A4.338,4.338,0,0,0,2,262.341Zm0,0" transform="translate(0 -240)" fill="#25282a"/>
  </g>
</svg>
